
<!-- Generator: visioncortex VTracer 0.6.4 -->
<svg version="1.1" xmlns="http://www.w3.org/2000/svg" viewBox="0 0 512 512" preserveAspectRatio="xMidYMid meet">
<path d="M0 0 C2.467 2.259 4.875 4.578 7.278 6.905 C8.068 7.656 8.068 7.656 8.875 8.423 C35.769 34.041 54.422 67.023 63.653 102.967 C63.993 104.274 63.993 104.274 64.34 105.607 C65.08 108.693 65.692 111.785 66.278 114.905 C66.475 115.898 66.475 115.898 66.675 116.911 C70.184 135.312 69.773 154 69.724 172.653 C69.715 176.357 69.722 180.061 69.745 183.766 C70.093 240.817 57.084 292.387 18.278 335.905 C17.589 336.686 17.589 336.686 16.887 337.483 C2.925 353.289 -13.318 366.55 -31.722 376.905 C-32.422 377.299 -33.121 377.693 -33.842 378.1 C-84.753 406.479 -141.801 410.206 -197.523 394.858 C-228.907 385.223 -256.658 367.004 -279.722 343.905 C-280.561 343.1 -281.4 342.296 -282.265 341.467 C-289.175 334.772 -295.123 327.723 -300.722 319.905 C-301.128 319.343 -301.533 318.782 -301.951 318.204 C-316.455 297.938 -326.579 275.361 -333.034 251.342 C-333.265 250.494 -333.495 249.646 -333.733 248.772 C-337.793 232.76 -339.193 216.701 -339.156 200.237 C-339.16 198.42 -339.165 196.602 -339.171 194.785 C-339.18 191.008 -339.178 187.231 -339.168 183.453 C-339.159 179.638 -339.166 175.823 -339.188 172.008 C-339.313 150.988 -339.357 130.527 -334.722 109.905 C-334.528 109.032 -334.333 108.159 -334.133 107.259 C-326.354 72.923 -309.558 42.081 -285.8 16.229 C-284.377 14.637 -283.007 12.997 -281.687 11.319 C-279.915 9.142 -278.172 7.398 -276.034 5.592 C-273.92 3.794 -271.824 2.001 -269.8 0.1 C-241.975 -25.892 -204.896 -41.707 -167.722 -48.095 C-166.444 -48.321 -165.167 -48.546 -163.851 -48.779 C-105.428 -57.31 -44.03 -39.301 0 0 Z " fill="#F4BB2B" transform="translate(390.721923828125,79.09521484375)"/>
<path d="M0 0 C2.467 2.259 4.875 4.578 7.278 6.905 C8.068 7.656 8.068 7.656 8.875 8.423 C35.769 34.041 54.422 67.023 63.653 102.967 C63.993 104.274 63.993 104.274 64.34 105.607 C65.08 108.693 65.692 111.785 66.278 114.905 C66.475 115.898 66.475 115.898 66.675 116.911 C70.184 135.312 69.773 154 69.724 172.653 C69.715 176.357 69.722 180.061 69.745 183.766 C70.093 240.817 57.084 292.387 18.278 335.905 C17.589 336.686 17.589 336.686 16.887 337.483 C2.925 353.289 -13.318 366.55 -31.722 376.905 C-32.422 377.299 -33.121 377.693 -33.842 378.1 C-84.753 406.479 -141.801 410.206 -197.523 394.858 C-228.907 385.223 -256.658 367.004 -279.722 343.905 C-280.561 343.1 -281.4 342.296 -282.265 341.467 C-289.175 334.772 -295.123 327.723 -300.722 319.905 C-301.128 319.343 -301.533 318.782 -301.951 318.204 C-316.455 297.938 -326.579 275.361 -333.034 251.342 C-333.265 250.494 -333.495 249.646 -333.733 248.772 C-337.793 232.76 -339.193 216.701 -339.156 200.237 C-339.16 198.42 -339.165 196.602 -339.171 194.785 C-339.18 191.008 -339.178 187.231 -339.168 183.453 C-339.159 179.638 -339.166 175.823 -339.188 172.008 C-339.313 150.988 -339.357 130.527 -334.722 109.905 C-334.528 109.032 -334.333 108.159 -334.133 107.259 C-326.354 72.923 -309.558 42.081 -285.8 16.229 C-284.377 14.637 -283.007 12.997 -281.687 11.319 C-279.915 9.142 -278.172 7.398 -276.034 5.592 C-273.92 3.794 -271.824 2.001 -269.8 0.1 C-241.975 -25.892 -204.896 -41.707 -167.722 -48.095 C-166.444 -48.321 -165.167 -48.546 -163.851 -48.779 C-105.428 -57.31 -44.03 -39.301 0 0 Z M-161.722 -16.095 C-162.461 -15.966 -163.2 -15.837 -163.962 -15.705 C-187.588 -11.441 -211.073 -3.179 -230.722 10.905 C-232.191 11.951 -232.191 11.951 -233.691 13.018 C-239.586 17.328 -245.118 21.892 -250.468 26.862 C-252.036 28.283 -253.657 29.646 -255.316 30.959 C-258.943 33.892 -261.746 37.327 -264.722 40.905 C-265.165 41.43 -265.608 41.955 -266.064 42.497 C-287.577 68.107 -301.268 98.674 -305.722 131.905 C-305.815 132.575 -305.909 133.246 -306.005 133.937 C-310.478 169.039 -302.792 206.023 -285.722 236.905 C-285.373 237.54 -285.023 238.175 -284.663 238.83 C-270.344 264.538 -249.637 285.426 -224.722 300.905 C-223.615 301.603 -222.507 302.302 -221.366 303.022 C-184.967 324.955 -137.629 332.204 -96.402 322.09 C-67.403 314.444 -42.175 302.513 -20.011 282.002 C-18.005 280.165 -15.948 278.443 -13.847 276.717 C5.792 259.494 18.817 235.107 27.564 210.874 C28.175 209.189 28.814 207.514 29.458 205.842 C38.497 181.176 39.602 152.631 35.278 126.905 C34.969 125.064 34.969 125.064 34.653 123.186 C28.637 90.644 13.837 60.262 -9.254 36.424 C-10.777 34.848 -12.278 33.251 -13.781 31.655 C-33.293 11.22 -58.754 -3.06 -85.722 -11.095 C-86.852 -11.454 -87.983 -11.812 -89.148 -12.181 C-112.346 -19.045 -137.92 -20.262 -161.722 -16.095 Z " fill="#EEEA78" transform="translate(390.721923828125,79.09521484375)"/>
<path d="M0 0 C0.33 0 0.66 0 1 0 C1.094 7.652 1.165 15.304 1.207 22.956 C1.228 26.513 1.255 30.069 1.302 33.625 C1.984 87.534 -13.75 137.349 -50 178 C-50.459 178.521 -50.918 179.042 -51.391 179.578 C-65.353 195.384 -81.597 208.645 -100 219 C-100.7 219.394 -101.399 219.789 -102.12 220.195 C-153.031 248.574 -210.079 252.301 -265.801 236.953 C-297.185 227.318 -324.936 209.099 -348 186 C-348.839 185.196 -349.678 184.391 -350.543 183.562 C-357.453 176.867 -363.401 169.819 -369 162 C-369.406 161.439 -369.811 160.877 -370.229 160.299 C-384.733 140.033 -394.857 117.456 -401.312 93.438 C-401.543 92.589 -401.774 91.741 -402.011 90.868 C-402.757 87.924 -403.396 84.976 -404 82 C-404.133 81.351 -404.267 80.702 -404.404 80.034 C-407.575 63.999 -407.347 48.034 -407.188 31.75 C-407.171 29.047 -407.159 26.344 -407.146 23.641 C-407.114 17.094 -407.064 10.547 -407 4 C-406.67 4 -406.34 4 -406 4 C-405.914 5.31 -405.827 6.619 -405.738 7.969 C-403.717 35.392 -397.635 62.443 -385 87 C-384.389 88.229 -383.778 89.458 -383.168 90.688 C-364.326 127.93 -332.954 158.094 -296 177 C-295.306 177.359 -294.612 177.719 -293.896 178.089 C-247.459 201.878 -190.624 205.994 -141 190 C-134.201 187.645 -127.583 184.898 -121 182 C-120.175 181.639 -119.351 181.277 -118.501 180.905 C-87.714 167.253 -61.248 145.85 -41 119 C-40.288 118.072 -39.577 117.144 -38.844 116.188 C-13.554 82.468 -1.918 41.687 0 0 Z " fill="#FCA527" transform="translate(459,237)"/>
<path d="M0 0 C3.105 2.501 5.463 5.239 7.25 8.812 C7.335 10.772 7.357 12.734 7.348 14.695 C7.344 15.862 7.341 17.029 7.338 18.23 C7.325 20.065 7.325 20.065 7.312 21.938 C7.308 23.169 7.303 24.4 7.299 25.668 C7.287 28.716 7.271 31.764 7.25 34.812 C7.967 34.538 8.684 34.264 9.423 33.981 C14.551 32.061 19.427 30.323 24.875 29.562 C25.878 29.413 26.881 29.263 27.914 29.109 C32.037 28.742 36.114 28.75 40.25 28.812 C40.198 26.985 40.198 26.985 40.145 25.121 C40.116 23.497 40.089 21.874 40.062 20.25 C40.037 19.45 40.012 18.65 39.986 17.826 C39.919 12.36 40.645 8.645 43.25 3.812 C47.834 -0.436 50.816 -1.547 56.93 -1.469 C60.53 -1.032 62.565 0.447 65.25 2.812 C67.981 6.583 68.614 9.143 68.543 13.77 C68.533 14.881 68.524 15.993 68.514 17.139 C68.489 18.289 68.463 19.44 68.438 20.625 C68.417 22.38 68.417 22.38 68.396 24.17 C68.361 27.051 68.312 29.932 68.25 32.812 C69.002 32.95 69.754 33.088 70.529 33.23 C83.949 36.101 99.551 45.012 108.133 55.707 C110.246 59.69 110.166 63.474 109.25 67.812 C107.087 72.219 104.853 75.011 100.25 76.812 C96.621 77.825 93.898 77.805 90.25 76.812 C86.926 74.868 83.951 72.47 80.927 70.095 C75.387 65.771 69.961 62.985 63.25 60.812 C62.368 60.497 61.487 60.181 60.578 59.855 C42.921 54.394 24.537 57.386 8.375 65.625 C-8.718 75.707 -19.993 90.555 -25.055 109.781 C-28.62 127.727 -25.233 146.241 -15.75 161.812 C-5.893 176.129 8.671 187.472 25.849 191.417 C46.498 194.818 65.573 191.007 82.77 179.062 C84.115 178.054 85.449 177.028 86.762 175.977 C90.039 173.414 92.894 173.482 96.93 173.527 C101.314 174.066 103.944 176.596 107.062 179.5 C109.263 183.785 110.025 188.176 108.648 192.859 C103.115 203.419 87.939 210.487 77.25 214.812 C74.27 215.591 71.276 216.236 68.25 216.812 C68.276 217.569 68.302 218.325 68.329 219.104 C68.434 222.548 68.498 225.992 68.562 229.438 C68.604 230.627 68.646 231.817 68.689 233.043 C68.828 242.936 68.828 242.936 65.98 246.523 C61.234 250.503 57.944 251.375 51.793 251.266 C47.548 250.509 44.908 248.105 42.25 244.812 C40.441 241.765 40.009 239.575 40.055 236.047 C40.061 235.157 40.068 234.268 40.074 233.352 C40.099 231.971 40.099 231.971 40.125 230.562 C40.134 229.627 40.143 228.691 40.152 227.727 C40.176 225.422 40.209 223.117 40.25 220.812 C39.497 220.859 38.744 220.905 37.969 220.953 C27.476 221.31 18.147 219.112 8.25 215.812 C8.246 216.563 8.242 217.314 8.238 218.088 C8.204 221.518 8.134 224.946 8.062 228.375 C8.057 229.556 8.051 230.738 8.045 231.955 C7.862 239.21 7.382 243.517 2.25 248.812 C-1.932 251.758 -6.835 251.441 -11.75 250.812 C-16.27 248.593 -18.673 246.371 -20.75 241.812 C-21.13 238.518 -21.048 235.257 -20.98 231.945 C-20.978 229.988 -20.978 228.031 -20.979 226.074 C-20.964 223.004 -20.937 219.935 -20.884 216.865 C-20.839 213.891 -20.844 210.92 -20.855 207.945 C-20.827 207.035 -20.798 206.124 -20.768 205.186 C-20.812 201.255 -20.929 198.792 -23.512 195.712 C-25.522 193.953 -27.59 192.381 -29.75 190.812 C-36.463 183.715 -41.208 175.388 -45.75 166.812 C-46.236 165.908 -46.722 165.003 -47.223 164.07 C-57.316 143.76 -58.184 117.328 -51.132 95.938 C-46.682 83.086 -39.823 67.235 -28.407 59.154 C-24.856 56.517 -22.235 54.044 -21.265 49.581 C-20.552 42.95 -20.775 36.282 -20.938 29.625 C-20.984 26.608 -21.017 23.593 -21.028 20.576 C-21.038 18.707 -21.069 16.838 -21.125 14.97 C-21.186 9.394 -20.537 6.207 -16.75 1.812 C-11.445 -1.804 -5.988 -2.586 0 0 Z " fill="#F4EEDE" transform="translate(219.75,108.1875)"/>
<path d="M0 0 C0.33 0 0.66 0 1 0 C1.094 7.652 1.165 15.304 1.207 22.956 C1.228 26.513 1.255 30.069 1.302 33.625 C1.984 87.534 -13.75 137.349 -50 178 C-50.459 178.521 -50.918 179.042 -51.391 179.578 C-65.353 195.384 -81.597 208.645 -100 219 C-100.7 219.394 -101.399 219.789 -102.12 220.195 C-131.276 236.448 -163.477 246 -197 246 C-197 230.82 -197 215.64 -197 200 C-190.379 199.196 -190.379 199.196 -183.625 198.375 C-161.806 195.532 -141.127 191.084 -121 182 C-120.184 181.64 -119.368 181.28 -118.528 180.909 C-87.726 167.261 -61.255 145.86 -41 119 C-40.288 118.072 -39.577 117.144 -38.844 116.188 C-13.554 82.468 -1.918 41.687 0 0 Z " fill="#FCA528" transform="translate(459,237)"/>
<path d="M0 0 C0.33 0 0.66 0 1 0 C1.094 7.652 1.165 15.304 1.207 22.956 C1.228 26.513 1.255 30.069 1.302 33.625 C1.985 87.631 -13.816 137.223 -50 178 C-50.913 179.048 -51.826 180.096 -52.738 181.145 C-56.622 185.535 -59.891 189.082 -65 192 C-66.704 193.628 -68.38 195.288 -70 197 C-70.99 196.67 -71.98 196.34 -73 196 C-75.952 155.592 -75.952 155.592 -69.566 146.969 C-66.135 143.512 -62.259 140.837 -58.094 138.333 C-55.049 136.395 -53.004 134.152 -50.625 131.438 C-49.87 130.583 -49.114 129.728 -48.336 128.848 C-44.047 123.619 -40.068 118.174 -36.167 112.651 C-35.208 111.294 -34.233 109.948 -33.254 108.605 C-28.724 102.184 -25.393 95.119 -21.994 88.057 C-21.058 86.119 -20.103 84.192 -19.145 82.266 C-6.535 56.575 -1.307 28.409 0 0 Z " fill="#FCA528" transform="translate(459,237)"/>
<path d="M0 0 C9.405 2.475 9.405 2.475 19 5 C23.647 5.852 28.204 6.627 32.875 7.25 C33.949 7.41 35.023 7.57 36.129 7.734 C46.811 9.223 57.094 9.481 68 10 C68 25.18 68 40.36 68 56 C43.554 56 43.554 56 35.5 54.812 C34.566 54.684 33.633 54.555 32.671 54.422 C21.68 52.81 10.552 50.517 0 47 C0 31.49 0 15.98 0 0 Z " fill="#FCA528" transform="translate(194,427)"/>
<path d="M0 0 C0.33 0 0.66 0 1 0 C1.086 1.31 1.173 2.619 1.262 3.969 C3.283 31.392 9.365 58.443 22 83 C22.611 84.229 23.222 85.458 23.832 86.688 C32.52 103.86 44.167 118.926 57.283 132.942 C59.693 135.524 61.947 138.125 64 141 C63.67 141.33 63.34 141.66 63 142 C62.84 145.101 62.74 148.182 62.684 151.285 C62.663 152.216 62.642 153.147 62.621 154.106 C62.555 157.091 62.496 160.077 62.438 163.062 C62.394 165.081 62.351 167.1 62.307 169.119 C62.199 174.079 62.098 179.04 62 184 C60.902 183.065 59.804 182.128 58.707 181.191 C58.096 180.67 57.485 180.149 56.855 179.612 C30.888 157.049 14.446 122.025 5.688 89.438 C5.457 88.589 5.226 87.741 4.989 86.868 C4.243 83.924 3.604 80.976 3 78 C2.867 77.351 2.733 76.702 2.596 76.034 C-0.575 59.999 -0.347 44.034 -0.188 27.75 C-0.171 25.047 -0.159 22.344 -0.146 19.641 C-0.114 13.094 -0.064 6.547 0 0 Z " fill="#FCA528" transform="translate(52,241)"/>
<path d="M0 0 C0 15.18 0 30.36 0 46 C-20.818 51.783 -20.818 51.783 -27.438 52.75 C-28.18 52.866 -28.922 52.982 -29.687 53.101 C-38.541 54.446 -47.02 55 -56 55 C-56 39.82 -56 24.64 -56 9 C-51.504 8.443 -47.007 7.886 -42.375 7.312 C-30.039 5.728 -18.046 3.519 -5.998 0.396 C-4 0 -4 0 0 0 Z " fill="#FCA528" transform="translate(318,428)"/>
<path d="M0 0 C0 14.85 0 29.7 0 45 C-8 49 -8 49 -12 49 C-12 33.82 -12 18.64 -12 3 C-4 0 -4 0 0 0 Z " fill="#F18103" transform="translate(330,424)"/>
<path d="M0 0 C6 1 6 1 12 3 C12 18.18 12 33.36 12 49 C5 48 5 48 0 46 C0 30.82 0 15.64 0 0 Z " fill="#F18103" transform="translate(182,424)"/>
<path d="M0 0 C3.96 0 7.92 0 12 0 C12 15.18 12 30.36 12 46 C8.04 46 4.08 46 0 46 C0 30.82 0 15.64 0 0 Z " fill="#F18103" transform="translate(250,437)"/>
<path d="M0 0 C4.289 2.046 8.038 4.207 11 8 C11.941 11.33 11.844 14.483 11.719 17.922 C11.711 18.863 11.704 19.804 11.696 20.774 C11.663 23.768 11.582 26.757 11.5 29.75 C11.473 31.777 11.45 33.805 11.43 35.832 C11.379 39.529 11.324 43.225 11.225 46.921 C11.206 47.662 11.187 48.404 11.167 49.167 C11 51 11 51 10 53 C5.708 50.951 1.95 48.81 -1 45 C-1.944 41.587 -1.844 38.344 -1.719 34.824 C-1.711 33.858 -1.704 32.893 -1.696 31.898 C-1.663 28.826 -1.582 25.758 -1.5 22.688 C-1.473 20.604 -1.45 18.52 -1.43 16.436 C-1.379 12.642 -1.324 8.85 -1.225 5.057 C-1.206 4.296 -1.187 3.535 -1.167 2.75 C-1 1 -1 1 0 0 Z " fill="#F18103" transform="translate(115,382)"/>
<path d="M0 0 C2.356 2.356 2.269 2.861 2.354 6.063 C2.38 6.901 2.405 7.74 2.432 8.603 C2.454 9.966 2.454 9.966 2.477 11.355 C2.501 12.758 2.501 12.758 2.525 14.189 C2.553 16.172 2.575 18.155 2.59 20.138 C2.625 23.16 2.712 26.177 2.801 29.197 C2.821 31.125 2.838 33.053 2.852 34.98 C2.887 35.879 2.922 36.777 2.958 37.702 C2.931 41.603 2.746 44.043 0.302 47.178 C-4.908 52 -4.908 52 -10 52 C-10.249 46.041 -10.429 40.086 -10.549 34.123 C-10.599 32.098 -10.667 30.074 -10.754 28.051 C-11.499 10.265 -11.499 10.265 -7.729 5.613 C-5.253 3.384 -2.913 1.605 0 0 Z " fill="#F18103" transform="translate(396,381)"/>
</svg>